<?xml version="1.0" encoding="UTF-8"?>
<svg id="Capa_2" data-name="Capa 2" xmlns="http://www.w3.org/2000/svg" xmlns:xlink="http://www.w3.org/1999/xlink" viewBox="0 0 946.1 944.23">
  <defs>
    <style>
      .cls-1 {
        fill: url(#Degradado_sin_nombre_2-2);
      }

      .cls-1, .cls-2, .cls-3 {
        stroke-width: 0px;
      }

      .cls-2 {
        fill: #9d9df9;
      }

      .cls-3 {
        fill: url(#Degradado_sin_nombre_2);
      }
    </style>
    <linearGradient id="Degradado_sin_nombre_2" data-name="Degradado sin nombre 2" x1="159.24" y1="-4060.7" x2="760.91" y2="-4060.7" gradientTransform="translate(0 -3759.54) scale(1 -1)" gradientUnits="userSpaceOnUse">
      <stop offset="0" stop-color="#3030ff"/>
      <stop offset="1" stop-color="#6461da"/>
    </linearGradient>
    <linearGradient id="Degradado_sin_nombre_2-2" data-name="Degradado sin nombre 2" x1="705.9" y1="-4137.69" x2="398.74" y2="-4644.84" xlink:href="#Degradado_sin_nombre_2"/>
  </defs>
  <g id="Capa_1-2" data-name="Capa 1">
    <g id="Capa_1-2" data-name="Capa 1-2">
      <g id="Niobe_Iberia" data-name="Niobe Iberia">
        <g>
          <path class="cls-2" d="M602.32,600.45c-27.17,59.95-72.13,110.53-129.27,143.32h0c-46.84,27.17-100.23,43.09-158.31,43.09-45.9,0-89.93-10.3-129.27-27.17h0C78.69,711.92,3.75,606.07,0,481.48v-18.73c3.75-123.65,78.69-229.5,185.47-278.21-17.8,39.34-27.17,83.37-27.17,129.27,0,58.08,15.92,111.47,43.09,158.31h0c32.79,56.2,83.37,102.1,143.32,129.27h0c39.34,17.8,83.37,27.17,129.27,27.17,45.9-.94,88.99-10.3,128.33-28.1Z"/>
          <path class="cls-2" d="M946.1,471.18v9.37c-3.75,123.65-78.69,229.5-185.47,278.21,17.8-39.34,27.17-83.37,27.17-129.27,0-58.08-15.92-111.47-43.09-158.31h0c-32.79-56.2-83.37-102.1-143.32-129.27-39.34-17.8-83.37-27.17-129.27-27.17s-89.93,9.37-129.27,27.17c27.17-59.95,72.13-110.53,129.27-143.32h0c46.84-27.17,100.23-43.09,158.31-43.09,45.9,0,89.93,10.3,129.27,27.17,106.79,47.77,181.73,153.62,185.47,278.21.94,4.68.94,7.49.94,10.3Z"/>
          <path class="cls-3" d="M760.63,184.54c-39.34-17.8-83.37-27.17-129.27-27.17-58.08,0-111.47,15.92-158.31,43.09h0c-56.2,32.79-102.1,83.37-129.27,143.32-17.8,39.34-27.17,83.37-27.17,129.27s10.3,89.93,27.17,129.27c-59.95-27.17-110.53-72.13-143.32-129.27h0c-27.17-46.84-43.09-100.23-43.09-158.31,0-45.9,9.37-89.93,27.17-129.27C232.31,78.69,338.16,3.75,462.75,0h18.73c125.52,2.81,231.37,77.75,279.15,184.54Z"/>
          <path class="cls-1" d="M788.73,629.49c0,45.9-9.37,89.93-27.17,129.27-47.77,106.79-153.62,181.73-278.21,185.47h-18.73c-123.65-3.75-229.5-78.69-278.21-185.47,39.34,17.8,83.37,27.17,129.27,27.17,58.08,0,111.47-15.92,158.31-43.09h0c56.2-32.79,102.1-83.37,129.27-143.32,17.8-39.34,27.17-83.37,27.17-129.27s-10.3-89.93-27.17-129.27c59.95,27.17,110.53,72.13,143.32,129.27h0c26.23,47.77,42.15,102.1,42.15,159.24Z"/>
        </g>
      </g>
    </g>
  </g>
</svg>